<svg width="33" height="55" fill="none" xmlns="http://www.w3.org/2000/svg"><path fill-rule="evenodd" clip-rule="evenodd" d="M16.477 39.906a3.648 3.648 0 00-3.65 3.645 3.648 3.648 0 003.65 3.645 3.648 3.648 0 003.651-3.645 3.648 3.648 0 00-3.65-3.645zm-4.25 3.645a4.248 4.248 0 014.25-4.245c2.348 0 4.251 1.9 4.251 4.245a4.248 4.248 0 01-4.25 4.245 4.247 4.247 0 01-4.251-4.245z" fill="#ED2024"/><path fill-rule="evenodd" clip-rule="evenodd" d="M16.477 36.488c-3.907 0-7.074 3.163-7.074 7.063s3.167 7.064 7.074 7.064 7.074-3.163 7.074-7.064c0-3.9-3.166-7.063-7.074-7.063zM8.803 43.55c0-4.233 3.436-7.663 7.674-7.663s7.674 3.43 7.674 7.663c0 4.233-3.436 7.664-7.674 7.664s-7.674-3.431-7.674-7.664z" fill="#ED2024"/><path fill-rule="evenodd" clip-rule="evenodd" d="M13.306 34.994a.665.665 0 10-.001 1.33.665.665 0 00.001-1.33zm-1.266.664a1.266 1.266 0 112.531.002 1.266 1.266 0 01-2.531-.002zm7.61-.664a.665.665 0 10-.002 1.33.665.665 0 00.002-1.33zm-1.266.664a1.265 1.265 0 112.53.002 1.265 1.265 0 01-2.53-.002zm5.909 3.902a.665.665 0 10-.002 1.33.665.665 0 00.002-1.33zm-1.267.664a1.265 1.265 0 112.531.002 1.265 1.265 0 01-2.53-.002zm1.267 5.92a.665.665 0 10-.002 1.33.665.665 0 00.002-1.33zm-1.267.665a1.266 1.266 0 112.531.001 1.266 1.266 0 01-2.53-.001zm-3.376 3.723a.665.665 0 10-.002 1.331.665.665 0 00.002-1.33zm-1.266.665a1.265 1.265 0 112.53.002 1.265 1.265 0 01-2.53-.002zm-5.078-.665a.666.666 0 10-.001 1.331.666.666 0 00.001-1.33zm-1.266.665a1.266 1.266 0 112.531.002 1.266 1.266 0 01-2.531-.002zm-3.165-5.053a.666.666 0 10-.002 1.331.666.666 0 00.002-1.331zm-1.267.665a1.266 1.266 0 112.531.001 1.266 1.266 0 01-2.53-.001zm1.089-7.072a.666.666 0 10-.001 1.33.666.666 0 000-1.33zM7.43 40.4a1.266 1.266 0 112.53.002 1.266 1.266 0 01-2.53-.002z" fill="#ED2024"/><path fill-rule="evenodd" clip-rule="evenodd" d="M16.489 33.868c-5.444 0-9.857 4.406-9.857 9.841s4.413 9.842 9.857 9.842c5.444 0 9.856-4.407 9.856-9.842 0-5.435-4.412-9.841-9.856-9.841zM6.032 43.709c0-5.767 4.682-10.441 10.457-10.441 5.774 0 10.456 4.674 10.456 10.441s-4.682 10.442-10.456 10.442c-5.775 0-10.457-4.675-10.457-10.442zm-.45-18.792h21.726v5.344H5.582v-5.344zm.6.6v4.144h20.526v-4.144H6.182z" fill="#ED2024"/><path fill-rule="evenodd" clip-rule="evenodd" d="M27.008 27.89H5.882v-.6h21.126v.6zM7.104 29.66h3.543v2.336H7.104v-2.335zm.6.6v1.136h2.343v-1.135H7.704zm14.643-.6h3.543v2.336h-3.543v-2.335zm.6.6v1.136h2.343v-1.135h-2.343zM7.104 23.184h3.543v2.336H7.104v-2.336zm.6.6v1.136h2.343v-1.136H7.704zm14.643-.6h3.543v2.336h-3.543v-2.336zm.6.6v1.136h2.343v-1.136h-2.343z" fill="#ED2024"/><path fill-rule="evenodd" clip-rule="evenodd" d="M9.333 36.185l.033-4.491.6.004-.033 4.491-.6-.004zm13.677 0l.033-4.491.6.004-.033 4.491-.6-.004zM2.325 3.38a.838.838 0 00-.838.836v.064c0 .462.375.837.838.837h28.34a.838.838 0 00.838-.837v-.064a.838.838 0 00-.838-.836H2.325zm-1.438.836c0-.794.644-1.436 1.438-1.436h28.34c.794 0 1.438.642 1.438 1.436v.064c0 .794-.645 1.437-1.439 1.437H2.326A1.438 1.438 0 01.887 4.28v-.064z" fill="#ED2024"/><path fill-rule="evenodd" clip-rule="evenodd" d="M12.227 8.726v-3.31h.6v3.719l-.201.07s0-.001 0 0h-.004a.833.833 0 00-.107.048c-.073.036-.169.09-.263.163-.193.15-.344.351-.344.62 0 .404-.107 3.85-.213 7.183l-.146 4.54-.066 2.037-.3-.01.3.01-.003.076-.874 1.5-.518-.303.797-1.368.064-1.96.146-4.541c.107-3.343.213-6.773.213-7.164 0-.528.307-.884.575-1.093.124-.097.247-.168.344-.217zm7.903-3.309h.6v3.31c.097.048.22.12.345.216.267.209.575.565.575 1.093 0 .391.106 3.82.212 7.164l.146 4.54.064 1.961.798 1.368-.519.302-.874-1.499-.002-.075.3-.01-.3.01-.067-2.037-.146-4.541c-.106-3.333-.212-6.78-.212-7.183 0-.269-.152-.47-.344-.62a1.54 1.54 0 00-.37-.21l-.004-.002-.201-.07V5.418zM13.754.55h5.44v2.83h-5.44V.55zm.6.6v1.63h4.24V1.15h-4.24z" fill="#ED2024"/><path fill-rule="evenodd" clip-rule="evenodd" d="M13.006 10.265h7.355v15.252h-7.355V10.265zm.6.6v14.052h6.155V10.865h-6.155z" fill="#ED2024"/><path fill-rule="evenodd" clip-rule="evenodd" d="M13.006 15.946h7.355v2.219h-7.355v-2.22zm.6.6v1.019h6.155v-1.02h-6.155z" fill="#ED2024"/><path fill-rule="evenodd" clip-rule="evenodd" d="M15.003 14.407h3.127v2.139h-3.127v-2.139zm.6.6v.939h1.926v-.939h-1.926z" fill="#ED2024"/></svg>