<svg width="25" height="34" fill="none" xmlns="http://www.w3.org/2000/svg"><g clip-path="url(#clip0_1300_4646)" fill="#EF4036"><path d="M3.043 12.797c0-1.668-.134-3.274.026-4.853C3.491 3.771 7.472.29 11.785.021c4.98-.311 9.17 2.995 10.074 7.373.14.675.192 1.374.214 2.065.034 1.104.008 2.21.008 3.379.401 0 .729-.007 1.057 0 1.056.027 1.806.708 1.84 1.734.036 1.041.015 2.083.016 3.126V31.66c0 1.782-.564 2.338-2.372 2.338H2.375C.564 33.999 0 33.444 0 31.662V15.338c0-1.98.472-2.453 2.5-2.503.114-.003.227-.016.542-.038h.001zm9.486.986H2.302c-1.134 0-1.372.232-1.372 1.345v16.598c0 1.096.274 1.368 1.379 1.37h20.385c1.078 0 1.371-.279 1.371-1.307.003-5.579.003-11.157 0-16.738 0-1.015-.262-1.267-1.308-1.267-3.41-.003-6.82 0-10.228 0v-.001zm5.862-.97c0-1.408.069-2.75-.016-4.082-.143-2.256-1.789-4.214-4.012-4.919A6.138 6.138 0 008.05 5.477c-2.017 2.18-1.35 4.798-1.46 7.336h11.801zm-12.768-.006c0-1.273-.012-2.474.001-3.675.049-4.226 4.25-7.375 8.468-6.354 3.168.767 5.255 3.325 5.287 6.492.011 1.172.001 2.345.001 3.51h1.714c0-1.238.008-2.418-.002-3.598-.031-3.671-2.495-6.84-6.135-7.9-3.601-1.05-7.485.332-9.613 3.336-1.791 2.528-1.435 5.358-1.42 8.189h1.699z"/><path d="M12.896 18.238c.96.042 1.932.638 2.482 1.83.53 1.149.299 2.44-.652 3.314-.39.36-.505.725-.488 1.213.029.786.023 1.574-.001 2.359a1.734 1.734 0 01-1.718 1.692c-.954.012-1.732-.742-1.753-1.73a40.491 40.491 0 01.003-2.358c.017-.467-.093-.81-.469-1.151-.966-.877-1.195-2.135-.692-3.31.498-1.164 1.596-1.867 3.288-1.86v.001zm-1.197 6.947c0 .508-.004 1.017 0 1.524.006.545.19.998.837.977.596-.018.776-.459.78-.97.008-.878.03-1.757-.007-2.634-.021-.525.102-.877.579-1.217.982-.7 1.045-2.136.222-3.013a2.19 2.19 0 00-3.12-.103c-.881.835-.947 2.303.018 3.01.651.478.728 1.002.69 1.663-.015.252-.003.508 0 .762h.001z"/></g><defs><clipPath id="clip0_1300_4646"><path fill="#fff" d="M0 0h25v34H0z"/></clipPath></defs></svg>