<svg width="28" height="35" fill="none" xmlns="http://www.w3.org/2000/svg"><g clip-path="url(#clip0_1300_4639)" fill="#EF4036"><path d="M15.943 29.647c.693 3.337 3.031 5.367 6.083 5.353 2.88-.012 5.326-2.084 5.87-5.06.308-1.682-.065-3.253-1.074-4.653-1.01-1.398-2.42-2.137-4.091-2.477v-.861c0-5.079-.007-10.159.01-15.237 0-.521-.142-.894-.53-1.248-1.844-1.678-3.655-3.395-5.508-5.065-.253-.228-.672-.378-1.017-.381C11.393-.008 7.1-.002 2.806.003 1.087.003.003 1.077.002 2.804 0 10.798 0 18.793.004 26.787c0 1.762 1.077 2.852 2.83 2.856 4.09.01 8.18.002 12.27.002h.839v.002zm5.624-6.854c-3.018.362-5.052 2.276-5.548 5.202-.08.473-.322.508-.698.507-4.136-.007-8.272 0-12.409-.009-1.281-.002-1.812-.552-1.812-1.836V3.01c0-1.327.57-1.896 1.906-1.897 3.933-.003 7.865 0 11.799 0h.682c0 1.29-.007 2.474.001 3.657.01 1.241.74 1.998 1.978 2.027.95.022 1.899.005 2.848.005h1.255v15.989l-.002.001zm-4.503 6.157c-.051-2.67 2.088-4.961 4.693-5.023 2.766-.065 5.06 2.096 5.119 4.82.058 2.8-2.135 5.113-4.88 5.142-2.675.029-4.877-2.177-4.93-4.94h-.002zM16.6 1.85l4.09 3.796c-1.198 0-2.187-.01-3.177.002-.628.009-.909-.308-.912-.914-.004-.884 0-1.77 0-2.883z"/><path d="M11.343 19.797h7.189c.18 0 .397.06.534-.02.228-.133.405-.354.605-.537-.209-.197-.403-.414-.633-.58-.091-.065-.265-.016-.4-.016H3.857c-.396-.004-.78.094-.784.555-.004.496.387.6.814.6 2.486-.004 4.972-.002 7.46-.002h-.003zm.007-5.444H4.104c-.18 0-.4-.06-.533.02-.203.125-.474.345-.479.529-.004.179.27.398.467.534.109.075.307.02.465.02H18.72c.157 0 .36.054.463-.022.193-.144.432-.354.455-.56.018-.151-.251-.382-.44-.494-.136-.08-.354-.027-.534-.027H11.35zm-.038-3.995h-7.19c-.18 0-.396-.055-.535.024-.206.12-.497.335-.496.508.003.194.262.426.463.561.127.086.35.029.531.029h14.582c.437.005.962.045.982-.55.022-.623-.514-.572-.945-.572H11.31h.002zm10.806 19.224h1.38c.401 0 .8.13.723.58-.038.222-.439.5-.704.537-.6.081-1.217.03-1.827.028-.476-.003-.692-.254-.69-.73.007-1.093.009-2.186.003-3.28-.001-.388.118-.72.538-.717.447.001.583.344.58.761-.007.909-.003 1.82-.003 2.822v-.001z"/></g><defs><clipPath id="clip0_1300_4639"><path fill="#fff" transform="matrix(1 0 0 -1 0 35)" d="M0 0h28v35H0z"/></clipPath></defs></svg>