<svg width="27" height="35" fill="none" xmlns="http://www.w3.org/2000/svg"><g clip-path="url(#clip0_1300_4635)" fill="#EF4036"><path d="M13.544 25.844c1.207-1.718 2.386-3.322 3.477-4.985.398-.608.828-.816 1.518-.768 1.257.09 2.544-.032 3.774.19 2.604.47 4.603 2.9 4.657 5.573.057 2.792.013 5.587.03 8.38.003.552-.193.767-.756.767a9840.69 9840.69 0 00-25.485 0c-.561 0-.76-.212-.756-.765.017-2.77-.032-5.54.026-8.308.067-3.222 2.734-5.798 5.93-5.823.93-.007 1.862.027 2.791-.013.517-.022.814.17 1.104.595 1.085 1.582 2.215 3.133 3.329 4.694.094.132.199.256.36.464v-.001zm12.442 8.12c0-2.754.05-5.447-.015-8.136-.053-2.167-1.643-4.121-3.743-4.537-1.152-.228-2.37-.12-3.555-.192-.432-.026-.694.131-.939.485C16.547 23.3 15.337 25 14.132 26.7c-.505.714-.763.71-1.277-.016-.819-1.154-1.628-2.314-2.451-3.463-.501-.7-.883-1.656-1.566-2.007-.685-.352-1.677-.108-2.534-.106-3.173.002-5.29 2.123-5.308 5.32-.01 1.852-.001 3.707-.002 5.56v1.942h4.348c0-1.381-.01-2.704.005-4.026.006-.423-.184-1.076.473-1.088.736-.013.5.68.508 1.113.023 1.337.009 2.675.009 4h14.325c0-1.499-.023-2.942.021-4.383.009-.257.267-.695.456-.722.472-.068.53.353.52.742-.005.192 0 .386 0 .578v3.822h4.325l.002-.002zm-4.75-26.551c0 .866.02 1.735-.011 2.6-.009.232-.136.635-.26.659-.528.093-.46.443-.468.804-.078 3.555-2.136 6.276-5.33 7.06-3.91.96-7.967-1.818-8.535-5.848a16.582 16.582 0 01-.125-1.22c-.021-.344.089-.729-.458-.79-.108-.01-.262-.294-.262-.451.006-1.974-.118-3.963.099-5.912C6.126 2.158 7.612.78 9.78.365c2.603-.498 5.216-.496 7.812.08C19.687.91 21.2 2.799 21.23 4.957c.012.82.002 1.638.003 2.456h.003zm-4.468.51c-2.328 1.301-4.592 1.067-6.746.026-.566.657-.972 1.431-1.61 1.798-1.013.584-.989 1.382-.881 2.302.025.216.064.428.101.64.547 3.119 3.567 5.382 6.59 5.005 3.612-.45 5.416-3.562 5.272-6.817-.007-.175-.14-.42-.285-.499a5.917 5.917 0 01-2.443-2.455h.002zm-9.993 1.66c1.065-.408 1.76-1.104 2.193-2.082.444-1 .441-1.007 1.44-.501 2.005 1.014 4.002 1.154 5.998-.026.836-.494.876-.447 1.268.44.485 1.097 1.314 1.825 2.561 2.27 0-1.65.009-3.136-.001-4.624-.013-1.85-1.284-3.395-3.075-3.725a19.83 19.83 0 00-7.32.007c-1.678.315-2.996 1.777-3.053 3.45-.053 1.562-.011 3.126-.011 4.792z"/></g><defs><clipPath id="clip0_1300_4635"><path fill="#fff" d="M0 0h27v35H0z"/></clipPath></defs></svg>