<svg width="16" height="16" fill="none" xmlns="http://www.w3.org/2000/svg"><g clip-path="url(#clip0_1501_9065)"><path d="M3.654 1.328a.678.678 0 00-1.015-.063L1.605 2.3c-.483.484-.66 1.169-.45 1.77a17.568 17.568 0 004.168 6.608 17.569 17.569 0 006.608 4.168c.602.21 1.287.033 1.77-.45l1.034-1.034a.679.679 0 00-.063-1.015l-2.306-1.794a.678.678 0 00-.58-.122l-2.19.547a1.745 1.745 0 01-1.658-.46L5.482 8.063a1.745 1.745 0 01-.46-1.657l.548-2.19a.678.678 0 00-.122-.58L3.654 1.328zM1.884.51a1.745 1.745 0 012.612.163L6.29 2.98c.33.423.445.974.315 1.494l-.547 2.19a.678.678 0 00.178.643l2.457 2.457a.678.678 0 00.644.178l2.19-.547a1.745 1.745 0 011.494.315l2.305 1.794c.83.645.905 1.87.163 2.61l-1.034 1.035c-.74.74-1.845 1.065-2.877.702a18.635 18.635 0 01-7.01-4.42 18.634 18.634 0 01-4.42-7.01c-.362-1.03-.037-2.136.703-2.876L1.885.51z" fill="#fff"/></g><defs><clipPath id="clip0_1501_9065"><path fill="#fff" d="M0 0h16v16H0z"/></clipPath></defs></svg>