<svg width="36" height="35" fill="none" xmlns="http://www.w3.org/2000/svg"><g clip-path="url(#clip0_1349_21238)" fill="#EF4036"><path d="M15.732 21.697a.51.51 0 00.509-.513.51.51 0 00-.51-.513H8.159a.51.51 0 00-.51.513.51.51 0 00.51.512h7.574zm1.454 1.971H6.704a.51.51 0 00-.509.513.51.51 0 00.51.512h10.481a.51.51 0 00.51-.512.51.51 0 00-.51-.513zm0 2.997H6.704a.51.51 0 00-.509.512.51.51 0 00.51.513h10.481a.51.51 0 00.51-.513.51.51 0 00-.51-.512zm1.098-15.295a.506.506 0 00-.72 0l-1.823 1.84-1.594-.886a.507.507 0 00-.612.092l-3.24 3.374-1.508-1.092a.507.507 0 00-.676.073l-2.523 2.817a.515.515 0 00.037.724c.209.19.53.173.72-.038l2.217-2.476 1.495 1.083a.506.506 0 00.663-.06l3.276-3.41 1.59.883c.198.11.445.074.605-.087l2.094-2.112a.516.516 0 000-.725zm5.854 15.98c-.509 2.839 1.61 5.448 4.43 5.556a4.706 4.706 0 004.562-3.035.513.513 0 00-.475-.695h-.561a1.96 1.96 0 01-1.767-1.103l-.011-.022-.004-.007a2.034 2.034 0 00-1.817-1.115H24.64a.51.51 0 00-.5.422zm.951.604h3.406c.385 0 .733.213.91.556l.01.019a2.97 2.97 0 002.423 1.662c-2.007 3.174-6.987 1.58-6.749-2.237z"/><path d="M30.873 21.723v-7.05h.358c.655 0 1.188-.537 1.188-1.197V12.45c0-.66-.533-1.197-1.187-1.197h-4.965c-.655 0-1.188.537-1.188 1.197v1.026c0 .66.533 1.196 1.188 1.196h.358v2.451a.51.51 0 00.51.513.51.51 0 00.509-.513v-2.45h2.21v7.432c0 .233.156.436.379.496 2.508.673 4.26 2.972 4.26 5.589 0 3.19-2.577 5.785-5.744 5.785s-5.743-2.595-5.743-5.785c0-2.617 1.752-4.916 4.26-5.59a.512.512 0 00.378-.495v-2.931a.51.51 0 00-.51-.513.51.51 0 00-.509.513v2.55a6.763 6.763 0 00-3.62 2.875V4.117c0-.637-.514-1.155-1.146-1.155h-1.146a.51.51 0 00-.509.513.51.51 0 00.51.512h1.145a.13.13 0 01.129.13V33.72a.13.13 0 01-.13.13H2.03a.13.13 0 01-.13-.13V4.117a.13.13 0 01.13-.13h4.29v1.135H4.068a.777.777 0 00-.774.78V26.33a.51.51 0 00.51.513.51.51 0 00.509-.513V6.148H6.32v.65a.97.97 0 00.967.973h9.315a.97.97 0 00.966-.973v-.65h2.008V31.69H4.312v-3.31a.51.51 0 00-.509-.512.51.51 0 00-.509.513v3.555c0 .43.347.78.774.78H19.82c.427 0 .774-.35.774-.78V5.901a.777.777 0 00-.774-.779h-2.252V3.987h1.109a.51.51 0 00.51-.512.51.51 0 00-.51-.513h-3.32C15.11 1.288 13.674 0 11.944 0c-1.73 0-3.165 1.288-3.412 2.962H2.03c-.633 0-1.147.518-1.147 1.155V33.72c0 .637.514 1.156 1.147 1.156h19.829c.632 0 1.147-.519 1.147-1.156v-1.94C24.2 33.71 26.328 35 28.749 35c3.729 0 6.762-3.055 6.762-6.81 0-2.948-1.888-5.553-4.638-6.467zm-.89-8.076h-3.716a.17.17 0 01-.17-.171V12.45a.17.17 0 01.17-.171h4.965a.17.17 0 01.17.17v1.027a.17.17 0 01-.17.17h-1.25zM11.943 1.025a2.44 2.44 0 012.378 1.937H9.567a2.44 2.44 0 012.377-1.937zM7.338 3.987h9.212v2.759H7.338V3.987z"/></g><defs><clipPath id="clip0_1349_21238"><path fill="#fff" transform="translate(.82)" d="M0 0h34.752v35H0z"/></clipPath></defs></svg>