<svg width="28" height="28" fill="none" xmlns="http://www.w3.org/2000/svg"><path d="M23.333 23.333v.5h.5v-.5h-.5zm-5.48-6.187a.5.5 0 00-.707.707l.708-.707zm4.98-.813v7h1v-7h-1zm.5 6.5h-7v1h7v-1zm.354.147l-5.833-5.834-.707.707 5.833 5.834.707-.707zm-19.02.353h-.5v.5h.5v-.5zm6.187-5.48a.5.5 0 10-.708-.707l.707.707zm-6.687-1.52v7h1v-7h-1zm.5 7.5h7v-1h-7v1zm.353-.146l5.834-5.834-.708-.707-5.833 5.834.707.707zm18.313-19.02h.5v-.5h-.5v.5zm-6.186 5.48a.5.5 0 10.707.707l-.707-.707zm6.686 1.52v-7h-1v7h1zm-.5-7.5h-7v1h7v-1zm-.353.146l-5.834 5.834.708.707 5.833-5.833-.707-.708zm-18.313.354v-.5h-.5v.5h.5zm5.48 6.187a.5.5 0 00.707-.707l-.708.707zm-4.98.813v-7h-1v7h1zm-.5-6.5h7v-1h-7v1zm-.354-.146l5.833 5.833.707-.707L5.02 4.313l-.707.708z" fill="#B1B1B1"/></svg>