<svg width="26" height="21" fill="none" xmlns="http://www.w3.org/2000/svg"><path fill-rule="evenodd" clip-rule="evenodd" d="M25 1H1v19h24V1zM1 0a1 1 0 00-1 1v19a1 1 0 001 1h24a1 1 0 001-1V1a1 1 0 00-1-1H1z" fill="#B1B1B1"/><path fill-rule="evenodd" clip-rule="evenodd" d="M9.49 5.99L.929 20.256l-.858-.515L8.983 4.89a.6.6 0 011.036.011l5.47 9.574 2.495-4.572a.6.6 0 011.018-.057l6.908 9.868-.82.573-6.537-9.339-2.528 4.635a.6.6 0 01-1.048.01L9.49 5.99z" fill="#B1B1B1"/><path fill-rule="evenodd" clip-rule="evenodd" d="M15 7a1 1 0 100-2 1 1 0 000 2zm0 1a2 2 0 100-4 2 2 0 000 4z" fill="#B1B1B1"/></svg>