<svg width="38" height="38" fill="none" xmlns="http://www.w3.org/2000/svg"><path d="M36.611 3.741H25.567l-.49-2.863a.548.548 0 00-.536-.454H12.878a.54.54 0 00-.535.454l-.49 2.863H.809a.541.541 0 00-.543.547v2.49c0 .422.149.831.42 1.155.27.323.645.54 1.058.613v21.201a.55.55 0 00.543.547h15.88v3.497a1.92 1.92 0 00-1.073.81 1.944 1.944 0 00.36 2.505 1.912 1.912 0 002.512 0 1.944 1.944 0 00.36-2.505 1.92 1.92 0 00-1.073-.81v-3.497h15.88a.542.542 0 00.542-.547v-21.2c.414-.073.789-.29 1.06-.614.27-.324.418-.733.419-1.155v-2.49a.55.55 0 00-.543-.547zM19.543 35.643a.843.843 0 01-.514.776.828.828 0 01-.908-.182.842.842 0 01.589-1.433.83.83 0 01.588.246.84.84 0 01.245.593zM13.335 1.518h10.75l.38 2.223h-11.51l.38-2.223zM2.83 29.2V8.575h31.76V29.2H2.83zM36.068 6.778a.706.706 0 01-.205.497.696.696 0 01-.493.206H2.05a.696.696 0 01-.494-.206.706.706 0 01-.204-.497V4.835h34.716v1.943z" fill="#EF4036"/><path d="M24.348 11.287a7.497 7.497 0 00-4.187 1.275 7.585 7.585 0 00-2.78 3.4 7.647 7.647 0 00-.44 4.383 7.614 7.614 0 002.051 3.892c.007.007.012.017.02.024.007.008.017.013.024.02a7.534 7.534 0 003.15 1.885 7.494 7.494 0 006.966-1.42 7.594 7.594 0 002.175-2.968 7.649 7.649 0 00-.71-7.122 7.564 7.564 0 00-2.716-2.475 7.503 7.503 0 00-3.553-.894zm6.433 7.054h-5.89v-5.933a6.445 6.445 0 014.02 1.883 6.53 6.53 0 011.87 4.05zm-6.976-5.933v6.253l-4.39 4.42a6.539 6.539 0 01-1.038-6.685 6.489 6.489 0 012.158-2.762 6.421 6.421 0 013.27-1.226zm.543 12.986a6.402 6.402 0 01-4.165-1.54l4.39-4.42h6.208a6.53 6.53 0 01-2.065 4.241 6.441 6.441 0 01-4.369 1.72zm-10.815-2.689H6.066a.54.54 0 00-.543.547.549.549 0 00.543.546h7.467a.541.541 0 00.543-.546.548.548 0 00-.543-.547zm0-11.418H6.066a.54.54 0 00-.543.546.549.549 0 00.543.547h7.467a.549.549 0 000-1.094zm0 3.807H6.066a.541.541 0 00-.543.547.549.549 0 00.543.546h7.467a.548.548 0 000-1.094zm0 3.805H6.066a.54.54 0 00-.543.547.549.549 0 00.543.546h7.467a.541.541 0 00.543-.546.548.548 0 00-.543-.547z" fill="#EF4036"/></svg>