<svg width="47" height="33" fill="none" xmlns="http://www.w3.org/2000/svg"><path fill-rule="evenodd" clip-rule="evenodd" d="M39.161 7.083c-1.894 0-3.398.614-4.627 1.917l-.436-.412c1.351-1.433 3.018-2.105 5.063-2.105 4.121 0 7.433 3.534 7.433 7.858 0 4.323-3.312 7.858-7.433 7.858-1.174 0-2.593-.57-3.53-1.045l.272-.535c.922.467 2.234.98 3.258.98 3.758 0 6.833-3.233 6.833-7.258s-3.075-7.258-6.833-7.258z" fill="#ED2024"/><path fill-rule="evenodd" clip-rule="evenodd" d="M37.633 8.737c.293-.042.593-.064.899-.064 3.288 0 5.977 2.65 5.977 5.654 0 2.987-2.438 5.409-5.5 5.637l-13.71 5.023-.207-.563 13.79-5.052.043-.003c2.8-.19 4.984-2.389 4.984-5.042 0-2.649-2.396-5.054-5.377-5.054-.287 0-.57.022-.844.062l-.034.005-12.366-.944.046-.599 12.3.94z" fill="#ED2024"/><path fill-rule="evenodd" clip-rule="evenodd" d="M14.284 1.506C7.23 1.506 1.436 8.157 1.436 16.46c0 8.3 5.793 14.952 12.848 14.952 7.056 0 12.848-6.651 12.848-14.953 0-8.3-5.792-14.952-12.848-14.952zM.836 16.46C.836 7.913 6.816.905 14.284.905S27.732 7.913 27.732 16.46c0 8.545-5.98 15.552-13.448 15.552C6.817 32.01.836 25.004.836 16.458z" fill="#ED2024"/><path fill-rule="evenodd" clip-rule="evenodd" d="M14.285 4.995c-5.396 0-9.843 5.089-9.843 11.464 0 6.374 4.447 11.464 9.843 11.464 5.395 0 9.843-5.09 9.843-11.464 0-6.375-4.448-11.464-9.843-11.464zM3.842 16.459c0-6.62 4.635-12.064 10.443-12.064 5.807 0 10.442 5.444 10.442 12.064s-4.635 12.064-10.442 12.064c-5.808 0-10.443-5.445-10.443-12.064z" fill="#ED2024"/><path fill-rule="evenodd" clip-rule="evenodd" d="M14.284 8.517c-3.717 0-6.803 3.512-6.803 7.942s3.086 7.942 6.803 7.942 6.804-3.513 6.804-7.942c0-4.43-3.087-7.942-6.804-7.942zm-7.403 7.942c0-4.675 3.274-8.543 7.403-8.543 4.13 0 7.404 3.868 7.404 8.543 0 4.674-3.275 8.542-7.404 8.542s-7.403-3.868-7.403-8.542zm7.403-14.205c-.27 0-.561.27-.561.697 0 .427.29.696.561.696.27 0 .56-.269.56-.696 0-.428-.29-.697-.56-.697zm-1.161.697c0-.674.48-1.297 1.161-1.297.68 0 1.16.623 1.16 1.297 0 .673-.48 1.296-1.16 1.296-.68 0-1.161-.623-1.161-1.296zm6.059.691c-.27 0-.56.27-.56.697 0 .427.29.697.56.697.27 0 .561-.27.561-.697 0-.427-.29-.697-.56-.697zm-1.16.697c0-.673.48-1.297 1.16-1.297.681 0 1.161.624 1.161 1.297 0 .673-.48 1.297-1.16 1.297-.681 0-1.162-.624-1.162-1.297zm7.54 8.451c-.27 0-.56.27-.56.697 0 .427.29.697.56.697.27 0 .561-.27.561-.697 0-.427-.29-.697-.56-.697zm-1.16.697c0-.673.48-1.297 1.16-1.297.681 0 1.161.624 1.161 1.297 0 .673-.48 1.297-1.16 1.297-.681 0-1.162-.624-1.162-1.297zM8.811 3.998c-.27 0-.56.27-.56.697 0 .427.29.696.56.696.27 0 .561-.27.561-.696 0-.428-.29-.697-.56-.697zm-1.16.697c0-.674.48-1.297 1.16-1.297.681 0 1.161.623 1.161 1.297 0 .673-.48 1.296-1.16 1.296-.682 0-1.162-.623-1.162-1.296zm-4.743 8.786c-.27 0-.56.27-.56.697 0 .427.29.696.56.696.27 0 .561-.269.561-.696 0-.428-.29-.697-.561-.697zm-1.16.697c0-.674.48-1.297 1.16-1.297.68 0 1.161.623 1.161 1.297 0 .673-.48 1.296-1.161 1.296-.68 0-1.16-.623-1.16-1.296zm3.74 10.349c-.27 0-.56.27-.56.697 0 .427.29.696.56.696.27 0 .561-.269.561-.696 0-.428-.29-.697-.56-.697zm-1.16.697c0-.674.48-1.297 1.16-1.297.681 0 1.161.623 1.161 1.297 0 .673-.48 1.296-1.16 1.296-.682 0-1.162-.623-1.162-1.296zm11.33 3.876c-.27 0-.56.27-.56.697 0 .427.29.696.56.696.27 0 .561-.269.561-.696 0-.428-.29-.697-.561-.697zm-1.16.697c0-.674.48-1.297 1.16-1.297.68 0 1.161.623 1.161 1.297 0 .673-.48 1.296-1.161 1.296-.68 0-1.16-.623-1.16-1.296zm9.346-6.269c-.27 0-.561.27-.561.697 0 .427.29.696.56.696.27 0 .561-.269.561-.696 0-.428-.29-.697-.56-.697zm-1.161.697c0-.674.48-1.297 1.16-1.297.681 0 1.162.623 1.162 1.297 0 .673-.48 1.296-1.161 1.296s-1.161-.623-1.161-1.296zm.952-16.521c-.27 0-.561.269-.561.696 0 .427.29.697.56.697.27 0 .561-.27.561-.697 0-.427-.29-.696-.56-.696zm-1.161.696c0-.673.48-1.296 1.16-1.296.681 0 1.162.623 1.162 1.296s-.48 1.297-1.161 1.297-1.161-.624-1.161-1.297zm3.346 10.044c-.271 0-.562.269-.562.696 0 .427.291.697.561.697.27 0 .561-.27.561-.697 0-.427-.29-.697-.56-.697zm-1.162.696c0-.673.48-1.297 1.161-1.297s1.161.624 1.161 1.297c0 .674-.48 1.297-1.16 1.297-.682 0-1.162-.623-1.162-1.297zm-4.128 7.965c-.27 0-.56.269-.56.696 0 .428.29.697.56.697.27 0 .561-.27.561-.697 0-.427-.29-.696-.56-.696zm-1.16.696c0-.673.48-1.296 1.16-1.296.681 0 1.161.623 1.161 1.296 0 .674-.48 1.297-1.16 1.297-.682 0-1.162-.623-1.162-1.297zm-9.346.507c-.27 0-.56.269-.56.696 0 .427.29.697.56.697.27 0 .561-.27.561-.697 0-.427-.29-.697-.56-.697zm-1.16.696c0-.673.48-1.297 1.16-1.297.681 0 1.161.624 1.161 1.297 0 .673-.48 1.297-1.16 1.297-.682 0-1.162-.623-1.162-1.297zM3.107 19.79c-.27 0-.56.268-.56.696 0 .427.29.696.56.696.27 0 .561-.269.561-.696 0-.428-.29-.697-.56-.697zm-1.16.696c0-.674.48-1.297 1.16-1.297.681 0 1.161.623 1.161 1.297 0 .673-.48 1.296-1.16 1.296-.682 0-1.162-.623-1.162-1.296zM4.628 7.941c-.27 0-.561.27-.561.697 0 .427.29.696.56.696.27 0 .562-.269.562-.696 0-.428-.291-.697-.561-.697zm-1.161.697c0-.673.48-1.297 1.16-1.297.682 0 1.162.623 1.162 1.297 0 .673-.48 1.296-1.161 1.296s-1.161-.623-1.161-1.296z" fill="#ED2024"/></svg>