<svg width="41" height="41" fill="none" xmlns="http://www.w3.org/2000/svg"><path fill-rule="evenodd" clip-rule="evenodd" d="M20.689 4.424c-8.886 0-16.085 7.151-16.085 15.968s7.2 15.968 16.085 15.968c8.885 0 16.084-7.15 16.084-15.968 0-8.817-7.2-15.968-16.085-15.968zM4.004 20.392c0-9.152 7.472-16.568 16.684-16.568 9.213 0 16.685 7.416 16.685 16.568 0 9.152-7.472 16.568-16.684 16.568-9.213 0-16.685-7.416-16.685-16.568z" fill="#ED2024"/><path fill-rule="evenodd" clip-rule="evenodd" d="M19.608 9.425a11.09 11.09 0 00-6.236 2.679l-.393-.453a11.69 11.69 0 016.572-2.823l.057.597zM12.27 13.21a10.917 10.917 0 00-2.661 6.484l-.6-.038a11.516 11.516 0 012.807-6.84l.453.394zm-2.612 8.002c.156 2.478 1.088 4.613 2.626 6.38l-.453.393c-1.62-1.861-2.607-4.12-2.771-6.735l.598-.038zm3.692 7.449a11.1 11.1 0 006.448 2.715l-.046.598a11.7 11.7 0 01-6.796-2.861l.395-.452zm7.932 2.734a11.09 11.09 0 006.649-2.653l.39.456a11.69 11.69 0 01-7.008 2.796l-.03-.599zm7.712-3.695a10.925 10.925 0 002.765-6.527l.599.042a11.524 11.524 0 01-2.916 6.884l-.448-.4zm.255-14.323c-.03-.035-.054-.066-.081-.096l.45-.397c.035.04.066.078.094.112l.001.002-.232.19.23-.192a11.526 11.526 0 012.647 6.568l-.599.043a10.926 10.926 0 00-2.509-6.228l-.001-.002zM27.94 12.05a11.086 11.086 0 00-6.504-2.652l.04-.6a11.686 11.686 0 016.854 2.797l-.39.456zm-7.252 6.137c-1.23 0-2.223.99-2.223 2.205 0 1.216.993 2.205 2.223 2.205s2.222-.99 2.222-2.205a2.214 2.214 0 00-2.222-2.205zm-2.823 2.205a2.814 2.814 0 012.823-2.805 2.814 2.814 0 012.822 2.805 2.814 2.814 0 01-2.822 2.805 2.814 2.814 0 01-2.823-2.805z" fill="#ED2024"/><path fill-rule="evenodd" clip-rule="evenodd" d="M19.28 6.607h2.476v7.541H19.28v-7.54zm.6.6v6.341h1.276v-6.34H19.88zm-.6 19.13h2.476v7.541H19.28v-7.54zm.6.6v6.341h1.276v-6.34H19.88zm6.875-5.314v-2.464h7.59v2.464h-7.59zm.6-.6h6.39v-1.264h-6.39v1.264zm-20.211.6v-2.464h7.59v2.464h-7.59zm.6-.6h6.39v-1.264h-6.39v1.264zm2.224-9.419l1.753-1.74 5.369 5.33-1.754 1.74-5.368-5.33zm.851 0l4.517 4.485.902-.895-4.517-4.485-.902.895zm15.122 5.329l-1.753-1.74 5.369-5.33 1.753 1.74-5.369 5.33zm0-.845l4.518-4.485-.902-.895-4.517 4.485.901.895zm5.368 13.227l-1.754 1.741-5.368-5.33 1.753-1.741 5.369 5.33zm-.852 0L25.94 24.83l-.902.896 4.517 4.485.902-.896zm-15.12-5.468l1.753 1.741-5.369 5.33-1.753-1.74 5.369-5.33zm0 .846l-4.517 4.485.901.895 4.517-4.485-.901-.895z" fill="#ED2024"/><path fill-rule="evenodd" clip-rule="evenodd" d="M20.688 3.443c-9.43 0-17.072 7.59-17.072 16.95 0 9.358 7.641 16.948 17.072 16.948s17.073-7.59 17.073-16.949c0-9.359-7.642-16.95-17.073-16.95zM3.016 20.393c0-9.695 7.914-17.55 17.672-17.55 9.758 0 17.673 7.855 17.673 17.55 0 9.693-7.915 17.548-17.673 17.548S3.016 30.086 3.016 20.392z" fill="#ED2024"/><path fill-rule="evenodd" clip-rule="evenodd" d="M20.688 1.3c-10.623 0-19.23 8.55-19.23 19.092 0 10.542 8.607 19.092 19.23 19.092 10.623 0 19.23-8.55 19.23-19.092C39.919 9.85 31.312 1.3 20.689 1.3zM.858 20.392C.857 9.514 9.737.7 20.687.7c10.95 0 19.83 8.814 19.83 19.692s-8.88 19.692-19.83 19.692c-10.95 0-19.83-8.814-19.83-19.692z" fill="#ED2024"/></svg>