<svg width="51" height="50" fill="none" xmlns="http://www.w3.org/2000/svg"><path fill-rule="evenodd" clip-rule="evenodd" d="M15.854 15.472h20.363v20.154H15.854V15.472zm.6.6v18.954h19.163V16.072H16.454zm13.983-13.58c-1.381 0-2.495 1.107-2.495 2.466 0 1.358 1.114 2.465 2.495 2.465 1.38 0 2.494-1.107 2.494-2.465 0-1.359-1.113-2.466-2.494-2.466zm-3.095 2.466c0-1.696 1.388-3.066 3.095-3.066 1.706 0 3.094 1.37 3.094 3.066 0 1.695-1.388 3.065-3.094 3.065-1.707 0-3.095-1.37-3.095-3.065zm15.529 2.085c-1.38 0-2.495 1.107-2.495 2.465 0 1.359 1.114 2.466 2.495 2.466s2.495-1.107 2.495-2.466c0-1.358-1.114-2.465-2.495-2.465zm-3.095 2.465c0-1.696 1.389-3.065 3.095-3.065 1.706 0 3.095 1.37 3.095 3.065 0 1.696-1.389 3.066-3.095 3.066-1.706 0-3.095-1.37-3.095-3.066zm6.938 18.141c-1.38 0-2.495 1.106-2.495 2.465 0 1.358 1.114 2.465 2.495 2.465 1.38 0 2.495-1.107 2.495-2.465 0-1.359-1.114-2.465-2.495-2.465zm-3.095 2.465c0-1.696 1.389-3.065 3.095-3.065 1.706 0 3.095 1.369 3.095 3.065s-1.389 3.065-3.095 3.065c-1.706 0-3.095-1.37-3.095-3.065zM21.413 44.012c-1.38 0-2.495 1.107-2.495 2.465 0 1.359 1.114 2.466 2.495 2.466s2.495-1.107 2.495-2.465c0-1.359-1.114-2.466-2.495-2.466zm-3.095 2.465c0-1.695 1.389-3.065 3.095-3.065 1.706 0 3.095 1.37 3.095 3.066 0 1.695-1.389 3.065-3.095 3.065-1.706 0-3.095-1.37-3.095-3.066zM8.953 39.53c-1.38 0-2.495 1.107-2.495 2.465 0 1.359 1.114 2.466 2.495 2.466s2.495-1.107 2.495-2.466c0-1.358-1.114-2.465-2.495-2.465zm-3.095 2.465c0-1.695 1.389-3.065 3.095-3.065 1.706 0 3.095 1.37 3.095 3.065 0 1.696-1.389 3.066-3.095 3.066-1.706 0-3.095-1.37-3.095-3.066zm-.736-23.193c-1.38 0-2.495 1.107-2.495 2.465 0 1.359 1.114 2.465 2.495 2.465s2.495-1.106 2.495-2.465c0-1.358-1.114-2.465-2.495-2.465zm-3.095 2.465c0-1.696 1.389-3.065 3.095-3.065 1.706 0 3.095 1.37 3.095 3.065 0 1.696-1.389 3.065-3.095 3.065-1.706 0-3.095-1.369-3.095-3.065z" fill="#ED2024"/><path fill-rule="evenodd" clip-rule="evenodd" d="M30.137 14.634V7.723h.6v6.911h-.6zm12.435 6.596v-8.956h.6v9.557h-6.11v-.6h5.51zm-5.457 8.584h6.804v.6h-6.804v-.6zM21.111 43.715v-7.202h.6v7.202h-.6zM8.652 29.814h6.217v.6H9.252v8.816h-.6v-9.416zm-.735-8.88h7.037v.6H7.917v-.6z" fill="#ED2024"/><path fill-rule="evenodd" clip-rule="evenodd" d="M5.122 17.577c-2.046 0-3.7 1.64-3.7 3.657 0 2.017 1.654 3.658 3.7 3.658 2.047 0 3.7-1.64 3.7-3.658 0-2.017-1.653-3.657-3.7-3.657zm-4.3 3.657c0-2.354 1.928-4.257 4.3-4.257s4.3 1.903 4.3 4.257c0 2.354-1.928 4.258-4.3 4.258s-4.3-1.904-4.3-4.258zm45.893 5.462c-1.913 0-3.458 1.533-3.458 3.418 0 1.884 1.545 3.418 3.458 3.418 1.913 0 3.458-1.533 3.458-3.418 0-1.885-1.545-3.418-3.458-3.418zm-4.058 3.418c0-2.222 1.82-4.018 4.058-4.018 2.238 0 4.058 1.796 4.058 4.018 0 2.222-1.82 4.018-4.058 4.018-2.238 0-4.058-1.796-4.058-4.018zM14.653 14.286h22.762v22.527H14.653V14.286zm.6.6v21.327h21.562V14.886H15.253zM30.437 1.3c-2.047 0-3.7 1.64-3.7 3.657 0 2.017 1.653 3.658 3.7 3.658 2.046 0 3.7-1.64 3.7-3.658 0-2.016-1.654-3.657-3.7-3.657zm-4.3 3.657c0-2.354 1.928-4.257 4.3-4.257 2.371 0 4.3 1.903 4.3 4.257 0 2.355-1.929 4.258-4.3 4.258-2.372 0-4.3-1.903-4.3-4.258z" fill="#ED2024"/></svg>