<svg width="34" height="44" fill="none" xmlns="http://www.w3.org/2000/svg"><path fill-rule="evenodd" clip-rule="evenodd" d="M19.026 19.466a3.977 3.977 0 00-3.972 3.982c0 2.2 1.779 3.983 3.972 3.983a3.977 3.977 0 003.97-3.983c0-2.2-1.778-3.982-3.97-3.982zm-4.572 3.982a4.577 4.577 0 014.572-4.582 4.577 4.577 0 014.57 4.582 4.577 4.577 0 01-4.57 4.583 4.577 4.577 0 01-4.572-4.582z" fill="#ED2024"/><path fill-rule="evenodd" clip-rule="evenodd" d="M19.026 15.749c-4.24 0-7.679 3.446-7.679 7.7 0 4.253 3.439 7.7 7.68 7.7 4.24 0 7.678-3.447 7.678-7.7 0-4.254-3.438-7.7-7.679-7.7zm-8.279 7.7c0-4.584 3.706-8.3 8.28-8.3 4.572 0 8.278 3.716 8.278 8.3 0 4.583-3.706 8.3-8.279 8.3s-8.279-3.717-8.279-8.3z" fill="#ED2024"/><path fill-rule="evenodd" clip-rule="evenodd" d="M19.196 11.115c-6.832 0-12.372 5.553-12.372 12.406 0 6.852 5.54 12.406 12.372 12.406 6.833 0 12.373-5.554 12.373-12.406 0-6.853-5.54-12.406-12.373-12.406zM6.224 23.52c0-7.183 5.807-13.006 12.972-13.006 7.166 0 12.973 5.823 12.973 13.006 0 7.182-5.807 13.006-12.973 13.006-7.165 0-12.972-5.824-12.972-13.006z" fill="#ED2024"/><path fill-rule="evenodd" clip-rule="evenodd" d="M18.99 9.22c-7.837 0-14.192 6.37-14.192 14.229 0 7.86 6.355 14.23 14.192 14.23s14.192-6.37 14.192-14.23-6.355-14.23-14.192-14.23zM4.198 23.448c0-8.19 6.622-14.83 14.792-14.83s14.792 6.64 14.792 14.83c0 8.19-6.622 14.83-14.792 14.83s-14.792-6.64-14.792-14.83z" fill="#ED2024"/><path fill-rule="evenodd" clip-rule="evenodd" d="M4.95 35.926h7.135v.6H5.55v6.024h26.863v-6.024h-6.518v-.6h7.118v7.224H4.95v-7.224zM23.33.61l7.337 7.282-3.446 3.655-.436-.411 3.044-3.23-6.564-6.516-10.388 7.328-.346-.49L23.331.61z" fill="#ED2024"/><path fill-rule="evenodd" clip-rule="evenodd" d="M.826 3.402h12.178V8.37l1.035 1.326-.473.369-1.162-1.489V4.002H1.53l3.744 23.114-.593.096L.826 3.402z" fill="#ED2024"/><path fill-rule="evenodd" clip-rule="evenodd" d="M2.541 1.736h8.806v1.966h-.6V2.336H3.141v1.366h-.6V1.736zm12.326 15.595a.766.766 0 00-.764.768c0 .424.343.767.764.767a.766.766 0 00.765-.767.766.766 0 00-.765-.768zm-1.364.768c0-.755.61-1.368 1.364-1.368.755 0 1.365.613 1.365 1.368a1.366 1.366 0 11-2.729 0zm9.794-.768a.766.766 0 00-.764.768c0 .424.343.767.764.767a.766.766 0 00.765-.767.766.766 0 00-.765-.768zm-1.364.768c0-.755.61-1.368 1.364-1.368.754 0 1.365.613 1.365 1.368a1.366 1.366 0 11-2.729 0zm1.192 10.141a.766.766 0 00-.764.768c0 .424.343.767.764.767a.766.766 0 00.765-.767.766.766 0 00-.765-.767zm-1.364.768a1.365 1.365 0 112.729 0c0 .754-.61 1.367-1.365 1.367a1.366 1.366 0 01-1.364-1.367zm-6.894-.768a.766.766 0 00-.764.768c0 .424.343.767.764.767a.766.766 0 00.765-.767.766.766 0 00-.765-.767zm-1.364.768a1.365 1.365 0 112.729 0c0 .754-.61 1.367-1.365 1.367a1.366 1.366 0 01-1.364-1.367z" fill="#ED2024"/><path fill-rule="evenodd" clip-rule="evenodd" d="M19.026 17.971c-3.016 0-5.462 2.452-5.462 5.478s2.446 5.477 5.462 5.477a5.47 5.47 0 005.463-5.477c0-3.026-2.446-5.478-5.463-5.478zm-6.062 5.478c0-3.356 2.713-6.078 6.062-6.078 3.35 0 6.063 2.722 6.063 6.078 0 3.356-2.714 6.077-6.063 6.077-3.349 0-6.062-2.721-6.062-6.077zm.299-12.14a.856.856 0 00-.854.857c0 .474.383.857.854.857a.856.856 0 00.854-.857.856.856 0 00-.854-.857zm-1.454.857c0-.804.65-1.457 1.454-1.457.804 0 1.454.653 1.454 1.457s-.65 1.457-1.454 1.457a1.456 1.456 0 01-1.454-1.457zm13.366-.857a.856.856 0 00-.854.857c0 .474.383.857.854.857a.856.856 0 00.854-.857.856.856 0 00-.854-.857zm-1.454.857c0-.804.65-1.457 1.454-1.457.804 0 1.454.653 1.454 1.457s-.65 1.457-1.454 1.457a1.456 1.456 0 01-1.454-1.457zm8.147 10.497a.856.856 0 00-.854.858c0 .474.383.857.854.857a.856.856 0 00.855-.857.856.856 0 00-.855-.858zm-1.454.858a1.455 1.455 0 112.909 0c0 .804-.65 1.457-1.455 1.457a1.456 1.456 0 01-1.454-1.457zm-23.89-.858a.856.856 0 00-.855.858.856.856 0 101.709 0 .856.856 0 00-.854-.858zm-1.455.858a1.456 1.456 0 112.909 0c0 .804-.65 1.457-1.454 1.457a1.456 1.456 0 01-1.455-1.457zm5.712 8.714a.856.856 0 00-.854.857c0 .474.383.857.854.857a.856.856 0 00.855-.857.856.856 0 00-.854-.857zm-1.454.857a1.455 1.455 0 112.909 0c0 .804-.65 1.457-1.455 1.457a1.456 1.456 0 01-1.454-1.457zm18.153-.857a.856.856 0 00-.854.857.856.856 0 101.709 0 .856.856 0 00-.854-.857zm-1.454.857a1.456 1.456 0 112.909 0c0 .804-.65 1.457-1.454 1.457a1.456 1.456 0 01-1.455-1.457z" fill="#ED2024"/></svg>