<svg width="36" height="35" fill="none" xmlns="http://www.w3.org/2000/svg"><path d="M34.696 13.875h-8.61V.578A.572.572 0 0025.511 0H1.401a.572.572 0 00-.574.578v19.656a.58.58 0 00.574.578h8.61V34.11a.58.58 0 00.574.578h24.11a.572.572 0 00.574-.578V14.453a.572.572 0 00-.574-.578zm-6.315 1.156h2.296v2.313h-2.296V15.03zm-1.148 0v2.313h-2.296V15.03h2.296zM1.976 1.156h22.961v12.719h-2.612l-2.64-4.348a.59.59 0 00-.764-.19.592.592 0 00-.212.19l-2.64 4.348h-.425l-5.132-8.96a.58.58 0 00-.5-.29.575.575 0 00-.499.29L1.976 18.077V1.156zM23.79 15.031v2.313h-2.296V15.03h2.296zm-6.377-1.156l1.785-2.937 1.785 2.937h-3.57zm2.933 1.156v2.313H18.05V15.03h2.296zm-3.444 0v2.313h-2.296V15.03H16.9zm-6.889-.578v5.203H2.395L10.012 6.36l4.306 7.516h-3.732a.58.58 0 00-.574.578zm3.445.578v2.313H11.16V15.03h2.296zm0 18.5H11.16V31.22h2.296v2.312zm3.444 0h-2.296V31.22H16.9v2.312zm3.444 0H18.05V31.22h2.296v2.312zm3.444 0h-2.296V31.22h2.296v2.312zm3.444 0h-2.296V31.22h2.296v2.312zm3.444 0h-2.296V31.22h2.296v2.312zm3.445 0h-2.296V31.22h2.296v2.312zm0-3.468H11.16V18.5h22.96v11.563zm0-12.72h-2.296v-2.312h2.296v2.313z" fill="#EF4036"/><path d="M28.064 23.767l-8.036-4.047a.572.572 0 00-.833.515v8.093a.581.581 0 00.27.492.577.577 0 00.563.023l8.036-4.047a.575.575 0 00.312-.515.581.581 0 00-.312-.514zm-7.72 3.625v-6.22l6.176 3.11-6.177 3.11zM15.753 8.094c.454 0 .898-.136 1.276-.39a2.31 2.31 0 00.846-1.038 2.329 2.329 0 00-.498-2.52 2.29 2.29 0 00-2.502-.501 2.3 2.3 0 00-1.031.851 2.324 2.324 0 00.286 2.92c.43.434 1.014.678 1.623.678zm0-3.469a1.142 1.142 0 011.06.714 1.164 1.164 0 01-.248 1.26 1.145 1.145 0 01-1.96-.818c0-.306.121-.6.336-.817.216-.217.508-.339.812-.339z" fill="#EF4036"/></svg>