<svg width="35" height="35" fill="none" xmlns="http://www.w3.org/2000/svg"><path d="M27.344 34.453H2.187a.547.547 0 01-.546-.547V1.094a.547.547 0 01.546-.547h18.047a.55.55 0 01.387.16l7.11 7.11c.102.102.16.241.16.386V22.97a.546.546 0 11-1.094 0V8.429l-6.789-6.788H2.734v31.718h24.61a.546.546 0 110 1.094z" fill="#EF4036"/><path d="M27.344 8.75h-7.11a.547.547 0 01-.547-.547v-7.11a.547.547 0 01.934-.386l7.11 7.11a.547.547 0 01-.387.933zM20.78 7.656h5.243L20.78 2.414v5.242zm1.095 4.375h-10.39a.547.547 0 110-1.094h10.39a.547.547 0 010 1.094zm0 4.922h-10.39a.547.547 0 110-1.094h10.39a.547.547 0 010 1.094zm0 4.922h-10.39a.547.547 0 110-1.094h10.39a.547.547 0 010 1.094zm-3.828 4.922h-6.563a.547.547 0 110-1.094h6.563a.547.547 0 010 1.094zm-8.75-13.672H7.109a.547.547 0 01-.546-.547v-2.187a.547.547 0 01.546-.547h2.188a.547.547 0 01.547.547v2.187a.547.547 0 01-.547.547zm-1.64-1.094H8.75v-1.094H7.656v1.094zm1.64 6.016H7.109a.547.547 0 01-.546-.547v-2.188a.547.547 0 01.546-.546h2.188a.547.547 0 01.547.546V17.5a.547.547 0 01-.547.547zm-1.64-1.094H8.75V15.86H7.656v1.094zm1.64 6.016H7.109a.547.547 0 01-.546-.547v-2.188a.547.547 0 01.546-.547h2.188a.547.547 0 01.547.547v2.188a.547.547 0 01-.547.547zm-1.64-1.094H8.75v-1.094H7.656v1.094zm1.64 6.015H7.109a.547.547 0 01-.546-.546v-2.188a.547.547 0 01.546-.547h2.188a.547.547 0 01.547.547v2.188a.547.547 0 01-.547.547zm-1.64-1.093H8.75v-1.094H7.656v1.094zm19.14 3.828a.547.547 0 01-.387-.16l-2.187-2.188a.546.546 0 01.773-.773l1.801 1.801 3.441-3.442a.547.547 0 01.774.774l-3.828 3.828a.547.547 0 01-.387.16z" fill="#EF4036"/><path d="M27.344 34.453a6.015 6.015 0 116.015-6.016 6.023 6.023 0 01-6.015 6.016zm0-10.937a4.922 4.922 0 100 9.844 4.922 4.922 0 000-9.844z" fill="#EF4036"/></svg>