<svg width="36" height="35" fill="none" xmlns="http://www.w3.org/2000/svg"><g clip-path="url(#clip0_1349_21210)" fill="#EF4036"><path d="M19.896.002c1.752.17 3.425.599 4.982 1.247l.029.013a17.42 17.42 0 014.42 2.683.549.549 0 01.037.808l-2.819 2.833a.545.545 0 01-.754.016 12.345 12.345 0 00-2.845-1.66l-.027-.012c-1-.415-2.071-.7-3.189-.838a.546.546 0 01-.48-.544V.542a.547.547 0 01.646-.54zm4.565 2.258a16.174 16.174 0 00-4.12-1.107v2.92a13.24 13.24 0 012.994.847c.009.004.019.006.028.012a13.43 13.43 0 012.745 1.543l2.055-2.064a16.359 16.359 0 00-3.675-2.141l-.027-.01zm-7.8 2.835a12.256 12.256 0 00-6.079 2.535.542.542 0 01-.718-.045l-.002.001-2.818-2.832a.55.55 0 01.059-.827 17.417 17.417 0 014.456-2.69 17.303 17.303 0 015.004-1.24.545.545 0 01.59.496c.001.017.003.033.003.05h.001v4.006c0 .285-.218.52-.495.546zm-3.613-.164a13.32 13.32 0 013.019-.858v-2.92a16.181 16.181 0 00-4.12 1.107 16.356 16.356 0 00-3.702 2.152L10.3 6.477a13.438 13.438 0 012.748-1.546zm-4.65 4.9A12.426 12.426 0 005.9 15.923a.546.546 0 01-.541.482H1.373a.545.545 0 01-.536-.649 17.51 17.51 0 011.24-5.004v-.002A17.54 17.54 0 014.76 6.28a.542.542 0 01.766-.073c.014.01.027.023.039.034l2.819 2.833a.55.55 0 01.015.757zM5.74 12.274c.406-.983.924-1.91 1.537-2.76L5.223 7.447a16.384 16.384 0 00-3.243 7.86h2.906c.168-1.055.457-2.07.854-3.034zM31.667 6.3a17.517 17.517 0 013.91 9.508.546.546 0 01-.542.595v.002h-3.987a.546.546 0 01-.543-.498 12.373 12.373 0 00-.842-3.216h-.002a12.463 12.463 0 00-1.678-2.894.548.548 0 01.043-.722l-.001-.001 2.819-2.834a.543.543 0 01.823.06zm1.659 4.866a16.436 16.436 0 00-2.142-3.717L29.13 9.513a13.507 13.507 0 011.537 2.76v.002c.398.963.687 1.979.855 3.034h2.906a16.463 16.463 0 00-1.102-4.143zm2.245 7.992a17.532 17.532 0 01-5.628 11.273 17.336 17.336 0 01-11.74 4.563 17.333 17.333 0 01-11.737-4.563A17.53 17.53 0 01.832 19.105a.545.545 0 01.54-.596v-.002H5.36c.283 0 .516.22.542.498a12.457 12.457 0 004.097 7.791 12.314 12.314 0 008.205 3.118c3.148 0 6.021-1.178 8.206-3.118a12.455 12.455 0 004.098-7.806.545.545 0 01.54-.482v-.001h3.988a.547.547 0 01.535.651zm-6.36 10.464a16.444 16.444 0 005.217-10.018h-2.906a13.554 13.554 0 01-4.393 8.011 13.396 13.396 0 01-8.926 3.395 13.392 13.392 0 01-8.924-3.395 13.555 13.555 0 01-4.393-8.011H1.98a16.442 16.442 0 005.218 10.018 16.253 16.253 0 0011.006 4.276c4.24 0 8.101-1.62 11.006-4.276z"/><path d="M21.993 15.942a4.113 4.113 0 01-.042 3.136 4.079 4.079 0 01-5.36 2.143 4.083 4.083 0 01-2.176-2.25 4.106 4.106 0 01.042-3.135 4.073 4.073 0 012.24-2.187 4.047 4.047 0 013.12.042 4.082 4.082 0 012.176 2.251zm-1.044 2.702a3.005 3.005 0 00.034-2.299v-.001a2.985 2.985 0 00-1.597-1.646 2.962 2.962 0 00-2.288-.034 2.983 2.983 0 00-1.639 1.604 3.009 3.009 0 00-.034 2.3 2.988 2.988 0 001.596 1.647 2.98 2.98 0 003.928-1.57z"/><path d="M20.316 14.123l6.895-1.42a1.02 1.02 0 01.725.123c.207.121.375.316.467.552.094.234.105.49.038.722-.07.237-.218.449-.442.59l-6.008 3.75a.543.543 0 01-.75-.177.541.541 0 01-.077-.368 3.033 3.033 0 00-.179-1.552 2.989 2.989 0 00-.385-.684 2.891 2.891 0 00-.544-.563.55.55 0 01.26-.973zm7.076-.342l-5.92 1.22h.002a4.183 4.183 0 01.784 1.982l5.134-3.202zm-7.463 2.987a1.86 1.86 0 01-2.458 2.402 1.854 1.854 0 01-.99-1.025l-.002-.006a1.86 1.86 0 011.04-2.415l.006-.002c.476-.189.98-.168 1.414.02.435.188.8.546.99 1.026zm-1.02.993a.776.776 0 00.01-.592.773.773 0 00-1.034-.415.761.761 0 00-.384.397.768.768 0 00-.024.554.468.468 0 01.029.074.77.77 0 00.985.395.768.768 0 00.418-.413zm-8.662-1.873a.546.546 0 11-1.069-.21 9.407 9.407 0 01.631-1.996.544.544 0 11.994.446 8.253 8.253 0 00-.33.864 8.815 8.815 0 00-.226.896zm2.59-4.543a.542.542 0 01-.769-.047.547.547 0 01.047-.77 9.096 9.096 0 012.69-1.658 9.116 9.116 0 015.407-.435 9.221 9.221 0 014.724 2.717.55.55 0 01-.028.773.542.542 0 01-.77-.028 8.114 8.114 0 00-4.166-2.395 8.022 8.022 0 00-4.766.382 8 8 0 00-1.252.63 7.962 7.962 0 00-1.118.83zm2.903 12.006h4.923a1.87 1.87 0 011.314 3.183l-.001.002.001.001a1.85 1.85 0 01-1.314.547H15.74c-.51 0-.973-.209-1.31-.547l-.002-.003a1.86 1.86 0 010-2.634 1.842 1.842 0 011.312-.549zm4.923 1.096H15.74c-.2 0-.383.079-.52.205l-.021.021a.772.772 0 00.54 1.315h4.924a.767.767 0 00.542-.227l.001.002a.773.773 0 00-.543-1.316z"/></g><defs><clipPath id="clip0_1349_21210"><path fill="#fff" transform="translate(.828)" d="M0 0h34.752v35H0z"/></clipPath></defs></svg>