<svg width="39" height="38" fill="none" xmlns="http://www.w3.org/2000/svg"><path d="M33.9 23.992l1.645-4.296a.466.466 0 00-.129-.517l-1.721-1.497c.15-1.338.115-2.69-.104-4.018l1.657-1.6a.466.466 0 00.103-.52l-1.833-4.22a.458.458 0 00-.455-.276l-2.295.17a13.072 13.072 0 00-2.891-2.775l.067-2.308a.463.463 0 00-.294-.446L23.385.031a.458.458 0 00-.514.13l-1.486 1.734a14.371 14.371 0 00-3.99.104L15.806.331a.458.458 0 00-.516-.104L11.1 2.074a.464.464 0 00-.275.458l.169 2.31A13.074 13.074 0 008.24 7.756l-2.292-.068a.457.457 0 00-.443.296L3.859 12.28a.466.466 0 00.129.517l1.722 1.497c-.15 1.338-.115 2.69.103 4.018l-1.656 1.6a.466.466 0 00-.103.52l1.833 4.22c.078.18.26.292.455.276l2.294-.17a13.062 13.062 0 002.892 2.774l-.067 2.309a.463.463 0 00.294.446l3.274 1.273v2.644a1.91 1.91 0 001.9 1.914h2.313v1.42c0 .255.206.463.46.463s.46-.208.46-.464v-1.419h2.312a1.91 1.91 0 001.9-1.914v-2.57l3.93-1.732a.464.464 0 00.275-.458l-.169-2.31a13.072 13.072 0 002.754-2.913l2.292.068a.456.456 0 00.443-.296zm-10.446 3.96v1.08h-1.503v-6.105a.938.938 0 01.934-.94 1.863 1.863 0 001.854-1.868v-.25a1.834 1.834 0 001.363-1.771 1.837 1.837 0 00-1.348-1.783 1.82 1.82 0 00-2.058.854 1.85 1.85 0 00.29 2.223c.23.232.518.396.833.478v.249c0 .52-.418.94-.934.94a1.863 1.863 0 00-1.854 1.868v6.106h-.837V15.46a1.847 1.847 0 001.36-2.022 1.84 1.84 0 00-1.82-1.614 1.84 1.84 0 00-1.82 1.614 1.847 1.847 0 001.36 2.022v13.572h-.838v-6.107a1.863 1.863 0 00-1.854-1.867.938.938 0 01-.934-.94v-.25c.315-.08.603-.245.833-.477a1.858 1.858 0 00.297-2.235 1.83 1.83 0 00-2.07-.86 1.846 1.846 0 00-1.355 1.793 1.846 1.846 0 001.375 1.78v.249c0 1.03.83 1.866 1.854 1.867a.939.939 0 01.934.94v6.107H15.95v-1.081a7.155 7.155 0 00-2.268-5.247 9.01 9.01 0 01-2.274-9.856c1.331-3.444 4.624-5.712 8.293-5.712h.084a8.899 8.899 0 017.998 5.205 9.015 9.015 0 01-2.015 10.32 7.29 7.29 0 00-2.314 5.29zm.183-9.216a.92.92 0 010-1.294.904.904 0 011.285 0 .92.92 0 01-.643 1.565.898.898 0 01-.642-.27zm-4.546-4.408a.92.92 0 010-1.294.904.904 0 011.285 0 .92.92 0 010 1.294.905.905 0 01-1.285 0zm-4.546 4.409a.92.92 0 010-1.294.904.904 0 011.285 0 .92.92 0 01-.642 1.564.9.9 0 01-.643-.27zm7.93 16.453H16.93a.985.985 0 01-.98-.987v-.16h4.032c.254 0 .46-.208.46-.463a.462.462 0 00-.46-.464H15.95V31.97h1.195c.254 0 .46-.208.46-.464a.462.462 0 00-.46-.463H15.95V29.96h7.504v1.082H19.77a.462.462 0 00-.46.463c0 .256.206.463.46.463h3.684v1.148H22.38a.462.462 0 00-.46.463c0 .256.206.464.46.464h1.074v.16a.985.985 0 01-.98.987zm8.464-11.904a.46.46 0 00-.396.207 12.17 12.17 0 01-2.884 3.05.465.465 0 00-.185.406l.163 2.235-3.262 1.437v-2.676a6.352 6.352 0 012.021-4.606 9.922 9.922 0 003.124-7.499c-.117-4.495-3.231-8.345-7.579-9.37-4.347-1.025-8.834 1.032-10.921 5.008-2.087 3.975-1.249 8.869 2.04 11.91a6.22 6.22 0 011.97 4.564v2.613l-2.64-1.026.065-2.234a.465.465 0 00-.204-.4 12.141 12.141 0 01-3.028-2.904.457.457 0 00-.404-.186l-2.22.164-1.574-3.623 1.602-1.547a.466.466 0 00.134-.418 13.753 13.753 0 01-.109-4.227.465.465 0 00-.155-.411l-1.663-1.445 1.412-3.685 2.219.066a.454.454 0 00.396-.206 12.162 12.162 0 012.883-3.05.464.464 0 00.186-.406l-.163-2.236 3.598-1.585L16.9 2.82a.457.457 0 00.415.135 13.48 13.48 0 014.198-.11.46.46 0 00.407-.156l1.435-1.675 3.659 1.423-.066 2.234c-.004.16.073.31.205.4a12.154 12.154 0 013.028 2.903.457.457 0 00.404.187l2.219-.164 1.574 3.623-1.602 1.547a.465.465 0 00-.134.418c.254 1.395.29 2.82.109 4.227a.466.466 0 00.155.411l1.663 1.445-1.413 3.685-2.218-.066z" fill="#EF4036"/></svg>