<svg width="27" height="28" fill="none" xmlns="http://www.w3.org/2000/svg"><path d="M13.094 28H1.02c-.902 0-1.057-.112-1.012-.995.083-1.626 0-3.302.383-4.862.83-3.382 3.901-5.767 7.4-5.86 3.478-.092 6.964-.096 10.444-.012 4.555.109 7.9 3.608 8.005 8.233.02.85.008 1.703.003 2.555-.007.81-.137.94-.938.941H13.094zm12.056-1.095c0-.912.036-1.762-.007-2.607-.21-4.112-3.187-6.948-7.336-6.974-3.12-.022-6.24-.009-9.361 0-.496 0-1.005.002-1.483.11-4.677 1.043-6.435 4.86-5.78 9.473H25.15v-.002zM6.598 6.497C6.596 2.891 9.506-.003 13.131 0c3.618.003 6.588 2.91 6.492 6.516-.082 3.183-1.329 5.926-3.75 8.054-1.725 1.516-3.75 1.47-5.53-.004C8.211 12.8 6.6 9.328 6.597 6.496l.001.001zm12.011.052c-.07-.48-.1-.928-.2-1.362-.585-2.521-3.043-4.284-5.704-4.105-2.543.171-4.852 2.279-4.984 4.781-.16 3.049.993 5.666 3.2 7.774 1.398 1.336 3 1.313 4.417-.005 2.063-1.919 2.985-4.37 3.271-7.083z" fill="#EF4036"/></svg>