<svg width="103" height="103" fill="none" xmlns="http://www.w3.org/2000/svg"><path d="M77.35 6.438H28.353V96.33h67.13V25.34L77.347 6.437" fill="#fff"/><path fill-rule="evenodd" clip-rule="evenodd" d="M77.347 6.438H28.352V96.33h67.13V25.34L77.347 6.437zm-.426 1H29.35V95.33h65.13V25.743L76.922 7.438z" fill="#B1B1B1"/><path d="M27.857 11.266H7.289V33.24h64.697V11.266h-44.13z" fill="#7A7B7C"/><path d="M72.33 32.867H7.707v-21.99H72.33v21.99z" fill="#D04424"/><path d="M77.352 6.438V25.34h18.13L77.353 6.437z" fill="#fff"/><path fill-rule="evenodd" clip-rule="evenodd" d="M77.352 25.341V6.437l18.13 18.904h-18.13zm15.786-1L78.352 8.925V24.34h14.786z" fill="#B1B1B1"/><path d="M23.81 24.363h-2.89v-2.67h2.88c.414 0 .747-.103 1-.308.251-.206.436-.488.552-.847a4.06 4.06 0 00.175-1.23c0-.462-.059-.894-.175-1.297-.116-.403-.3-.725-.553-.967-.252-.25-.582-.374-.989-.374h-1.978V30H19V14h4.81c.95 0 1.768.227 2.454.681.685.455 1.209 1.08 1.57 1.88.37.79.553 1.7.553 2.725 0 1.025-.184 1.92-.552 2.681-.369.762-.896 1.352-1.581 1.77-.679.417-1.494.626-2.444.626zm11.288 0h-2.89v-2.67h2.88c.414 0 .747-.103 1-.308a1.76 1.76 0 00.552-.847 4.03 4.03 0 00.175-1.23 4.63 4.63 0 00-.175-1.297c-.116-.403-.3-.725-.553-.967-.252-.25-.581-.374-.989-.374H33.12V30h-2.832V14h4.81c.95 0 1.769.227 2.454.681.685.455 1.209 1.08 1.57 1.88.37.79.554 1.7.554 2.725 0 1.025-.185 1.92-.553 2.681-.369.762-.895 1.352-1.58 1.77-.68.417-1.494.626-2.445.626zM47.201 14v16H44.38V14h2.822zm3.51 0v2.67h-9.775V14h9.776zm4.151 0l2.018 5.34L58.8 14h3.132l-3.404 7.923L62 30h-3.258l-2.008-5.462L54.727 30h-3.19l3.53-8.143L51.613 14h3.248z" fill="#fff"/><path d="M75 64a15 15 0 11-15-15v15h15z" fill="#D04424"/><path d="M62 47a15 15 0 0115 15H62V47z" fill="#D04424"/></svg>